# xmcd
#
# Track frame offsets: 
#        150
#        15981
#        37075
#        50150
#        71875
#        99331
#        117707
#        136233
#        171195
#        187203
#        207077
#        223160
#
# Disc length: 3269 seconds
#
# Revision: 0
# Processed by: cddbd v1.5.2PL0 Copyright (c) Steve Scherf et al.
# Submitted via: ExactAudioCopy v0.99pb3
#
DISCID=bc0cc30c
DTITLE=Mud Morganfield - Son Of The Seventh Son
DYEAR=2012
DGENRE=Blues
TTITLE0=Short Dress Woman
TTITLE1=Son Of The Seventh Son
TTITLE2=Love To Flirt
TTITLE3=Catfishing
TTITLE4=Health
TTITLE5=Loco Motion
TTITLE6=Money (Can't Buy Everything)
TTITLE7=Midnight Lover
TTITLE8=Go Ahead And Blame Me
TTITLE9=Leave Me Alone
TTITLE10=You Can't Lose What You Ain't Never Had
TTITLE11=Blues In My Shoes
EXTD=
EXTT0=
EXTT1=
EXTT2=
EXTT3=
EXTT4=
EXTT5=
EXTT6=
EXTT7=
EXTT8=
EXTT9=
EXTT10=
EXTT11=
PLAYORDER=
